<?xml version="1.0" encoding="utf-8"?>
<?xml-stylesheet type="text/xsl" href="rss1.xsl"?>
<rss version="2.0" xmlns:atom="http://www.w3.org/2005/Atom" xmlns:content="http://purl.org/rss/1.0/modules/content/" xmlns:dc="http://purl.org/dc/elements/1.1/" xmlns:media="http://search.yahoo.com/mrss/">
<channel>
 <title>Getty</title>
 <link>http://www.gettyimg.com/</link>
 <atom:link href="http://www.gettyimg.com/" rel="self" type="application/rss+xml" />

 
                <item>
                <title><![CDATA[【Apple Music】WEB-RiP - Ewelina Lisowska - Prosta Sprawa (1080p)]]></title>
                <link><![CDATA[https://sharemania.us/threads/ewelina-lisowska-prosta-sprawa-1080p.251265/]]></link>
                <description><![CDATA[<article>
<blockquote class="messageText SelectQuoteContainer ugc baseHtml">
<img src="https://i.postimg.cc/QtsGQzS4/Ewelina-Lisowska-Prosta-Sprawa-mp4.jpg" class="bbCodeImage LbImage" alt="[​IMG]" data-url="https://i.postimg.cc/QtsGQzS4/Ewelina-Lisowska-Prosta-Sprawa-mp4.jpg" style=""><br>
<br>
<div class="bbCodeBlock bbCodeCode">
<div class="type">Code:</div>
<pre>General
Complete name                  : G:\Новая папка\Ewelina Lisowska - Prosta Sprawa.mp4
Format                         : MPEG-4
Format profile                 : Base Media
Codec ID                       : isom (isom/iso2/avc1/mp41)
File size                      : 162 MiB
Duration                       : 3 min 18 s
Overall bit rate               : 6 876 kb/s
Frame rate                     : 25.000 FPS
Movie name                     : Prosta Sprawa
Performer                      : Ewelina Lisowska
Genre                          : Pop
ContentType                    : Music Video
Recorded date                  : 2016-07-27 07:00:00 UTC
Writing application            : Lavf56.30.100
Copyright                      : ℗ 2016 Universal Music Polska

Video
ID                             : 1
Format                         : AVC
Format/Info                    : Advanced Video Codec
Format profile                 : High@L4
Format settings                : CABAC / 5 Ref Frames
Format settings, CABAC         : Yes
Format settings, Reference fra : 5 frames
Format settings, Slice count   : 8 slices per frame
Codec ID                       : avc1
Codec ID/Info                  : Advanced Video Coding
Duration                       : 3 min 18 s
Bit rate                       : 6 614 kb/s
Width                          : 1 916 pixels
Height                         : 872 pixels
Display aspect ratio           : 2.2:1
Frame rate mode                : Constant
Frame rate                     : 25.000 FPS
Color space                    : YUV
Chroma subsampling             : 4:2:0
Bit depth                      : 8 bits
Scan type                      : Progressive
Bits/(Pixel*Frame)             : 0.158
Stream size                    : 156 MiB (96%)
Color range                    : Limited
Color primaries                : BT.709
Transfer characteristics       : BT.709
Matrix coefficients            : BT.709
Codec configuration box        : avcC

Audio
ID                             : 2
Format                         : AAC LC
Format/Info                    : Advanced Audio Codec Low Complexity
Codec ID                       : mp4a-40-2
Duration                       : 3 min 18 s
Duration_LastFrame             : -20 ms
Bit rate mode                  : Constant
Bit rate                       : 258 kb/s
Channel(s)                     : 2 channels
Channel layout                 : L R
Sampling rate                  : 48.0 kHz
Frame rate                     : 46.875 FPS (1024 SPF)
Compression mode               : Lossy
Stream size                    : 6.09 MiB (4%)
Default                        : Yes
Alternate group                : 1

</pre>
</div>
<div class="bbCodeBlock bbCodeVfcHH HiddenContent">
<div class="attribution type">Hidden Content:</div>
<blockquote>You must either reply or click 'Like' to see the hidden information contained here.</blockquote>
</div>
<div class="messageTextEndMarker">&nbsp;</div>
</blockquote>
</article>]]></description>
                <author><![CDATA[vitalya3]]></author>
                </item>

                
                <item>
                <title><![CDATA[【Albums (lossy)】Dolby Atmos - Petit Biscuit - Discipline - Dolby Atmos [E-AC-3 JOC 768kbps 16bit/48kHz]]]></title>
                <link><![CDATA[https://sharemania.us/threads/petit-biscuit-discipline-dolby-atmos-e-ac-3-joc-768kbps-16bit-48khz.251267/]]></link>
                <description><![CDATA[<article>
<blockquote class="messageText SelectQuoteContainer ugc baseHtml">
Petit Biscuit - Discipline<br>
Released: June 28, 2024<br>
Genre: Electronic<br>
Source: Apple Music Rip<br>
<br>
<img src="https://i.imgur.com/rrPz8OI.jpeg" class="bbCodeImage LbImage" alt="[​IMG]" data-url="https://i.imgur.com/rrPz8OI.jpeg" style=""> <br>
<br>
Excited to give this album a listen. Hope you all enjoy!<br>
<br>
<br>
<div class="ToggleTriggerAnchor bbCodeSpoilerContainer">
<button type="button" class="button bbCodeSpoilerButton ToggleTrigger Tooltip JsOnly" data-target="> .SpoilerTarget"><span>Spoiler: <span class="SpoilerTitle">Tracklist</span></span></button>
<div class="SpoilerTarget bbCodeSpoilerText">1. Honor Your Goals 04:09<br>
2. My Youth Is Fading Away 03:39<br>
3. You Don't Ignore (Too Late) 03:10<br>
4. Cruel Heart 03:33<br>
5. Shorter Than A Night 04:34<br>
6. Bad Episode 02:37<br>
7. Finale 02:41<br>
8. Nevermind 02:59<br>
9. Petit Biscuit, Cub Sport - I Forgot What's Love (ft. Cub Sport) 03:22<br>
10. Follow The Line 04:04<br>
11. I Won't Stay Strong 04:42</div>
</div><br>
<div class="ToggleTriggerAnchor bbCodeSpoilerContainer">
<button type="button" class="button bbCodeSpoilerButton ToggleTrigger Tooltip JsOnly" data-target="> .SpoilerTarget"><span>Spoiler: <span class="SpoilerTitle">Mediainfo</span></span></button>
<div class="SpoilerTarget bbCodeSpoilerText">General<br>
Complete name : F:\BLURAY MUSIC\0_Audio Only\0_ATMOS\Petit Biscuit\Discipline\01. Honor Your Goals.m4a<br>
Format : MPEG-4<br>
Format profile : Base Media / Version 2<br>
Codec ID : mp42 (isom/M4A /mp42/dby1)<br>
File size : 25.7 MiB<br>
Duration : 4 min 9 s<br>
Overall bit rate mode : Constant<br>
Overall bit rate : 864 kb/s<br>
Album : Discipline<br>
Album/Performer : Petit Biscuit<br>
Part/Position : 1<br>
Part/Total : 1<br>
Track name : Honor Your Goals<br>
Track name/Position : 1<br>
Track name/Total : 11<br>
Performer : Petit Biscuit<br>
Composer : Mehdi Benjelloun<br>
Genre : Electronic<br>
Recorded date : 2024-06-28<br>
Encoded date : 2024-07-28 19:48:06 UTC<br>
Tagged date : 2024-07-28 19:48:06 UTC<br>
ISRC : FR8PF2300140<br>
Copyright : ℗ 2024 Écurie<br>
Cover : Yes<br>
Rating : None<br>
com : Mehdi Benjelloun<br>
UPC : 3617384643159<br>
trk : 1<br>
Audio<br>
ID : 1<br>
Format : E-AC-3 JOC<br>
Format/Info : Enhanced AC-3 with Joint Object Coding<br>
Commercial name : Dolby Digital Plus with Dolby Atmos<br>
Codec ID : ec-3<br>
Duration : 4 min 9 s<br>
Bit rate mode : Constant<br>
Bit rate : 768 kb/s<br>
Maximum bit rate : 811 kb/s<br>
Channel(s) : 6 channels<br>
Channel layout : L R C LFE Ls Rs<br>
Sampling rate : 48.0 kHz<br>
Frame rate : 31.250 FPS (1536 SPF)<br>
Compression mode : Lossy<br>
Stream size : 22.8 MiB (89%)<br>
Title : Honor Your Goals<br>
Service kind : Complete Main<br>
Default : Yes<br>
Alternate group : 1<br>
Encoded date : 2024-07-28 19:48:06 UTC<br>
Tagged date : 2024-07-28 19:48:07 UTC<br>
Complexity index : 16<br>
Number of dynamic objects : 15<br>
Bed channel count : 1 channel<br>
Bed channel configuration : LFE<br>
Dialog Normalization : -18 dB<br>
compr : -0.28 dB<br>
dmixmod : Lo/Ro<br>
ltrtcmixlev : -3.0 dB<br>
ltrtsurmixlev : -3.0 dB<br>
lorocmixlev : -3.0 dB<br>
lorosurmixlev : -3.0 dB<br>
dialnorm_Average : -18 dB<br>
dialnorm_Minimum : -18 dB<br>
dialnorm_Maximum : -18 dB</div>
</div><br>
<div class="bbCodeBlock bbCodeVfcHH HiddenContent">
<div class="attribution type">Hidden Content:</div>
<blockquote>You must reply before you can see the hidden data contained here.</blockquote>
</div>
<div class="bbCodeBlock bbCodeVfcHH HiddenContent">
<div class="attribution type">Hidden Content:</div>
<blockquote>You must reply before you can see the hidden data contained here.</blockquote>
</div>
<div class="bbCodeBlock bbCodeVfcHH HiddenContent">
<div class="attribution type">Hidden Content:</div>
<blockquote>You must either reply or click 'Like' to see the hidden information contained here.</blockquote>
</div>
<div class="messageTextEndMarker">&nbsp;</div>
</blockquote>
</article>]]></description>
                <author><![CDATA[schism]]></author>
                </item>

                
                <item>
                <title><![CDATA[【Apple Music】WEB-RiP - Static &amp; Ben El &amp; Pitbull - Further Up (Na, Na, Na, Na, Na) (1080p)]]></title>
                <link><![CDATA[https://sharemania.us/threads/static-ben-el-pitbull-further-up-na-na-na-na-na-1080p.251266/]]></link>
                <description><![CDATA[<article>
<blockquote class="messageText SelectQuoteContainer ugc baseHtml">
<img src="https://i.postimg.cc/sgXpXDrK/Static-Ben-El-Pitbull-Further-Up-Na-Na-Na-Na-Na-mp4.jpg" class="bbCodeImage LbImage" alt="[​IMG]" data-url="https://i.postimg.cc/sgXpXDrK/Static-Ben-El-Pitbull-Further-Up-Na-Na-Na-Na-Na-mp4.jpg" style=""><br>
<br>
<div class="bbCodeBlock bbCodeCode">
<div class="type">Code:</div>
<pre>General
Complete name                  : G:\Новая папка\Static &amp; Ben El &amp; Pitbull - Further Up (Na, Na, Na, Na, Na).mp4
Format                         : MPEG-4
Format profile                 : Base Media
Codec ID                       : isom (isom/iso2/avc1/mp41)
File size                      : 188 MiB
Duration                       : 2 min 37 s
Overall bit rate               : 10.0 Mb/s
Frame rate                     : 25.000 FPS
Movie name                     : Further Up (Na, Na, Na, Na, Na)
Performer                      : Static &amp; Ben El &amp; Pitbull
Genre                          : Pop
ContentType                    : Music Video
Recorded date                  : 2020-01-10 08:00:00 UTC
Writing application            : Lavf56.30.100
Copyright                      : ℗ 2020 S&amp;B Entertainment Ventures LLC, a Saban Music Group Joint Venture

Video
ID                             : 1
Format                         : AVC
Format/Info                    : Advanced Video Codec
Format profile                 : High@L4
Format settings                : CABAC / 5 Ref Frames
Format settings, CABAC         : Yes
Format settings, Reference fra : 5 frames
Format settings, Slice count   : 8 slices per frame
Codec ID                       : avc1
Codec ID/Info                  : Advanced Video Coding
Duration                       : 2 min 37 s
Bit rate                       : 9 784 kb/s
Width                          : 1 920 pixels
Height                         : 802 pixels
Display aspect ratio           : 2.39:1
Frame rate mode                : Constant
Frame rate                     : 25.000 FPS
Color space                    : YUV
Chroma subsampling             : 4:2:0
Bit depth                      : 8 bits
Scan type                      : Progressive
Bits/(Pixel*Frame)             : 0.254
Stream size                    : 183 MiB (97%)
Language                       : English
Color range                    : Limited
Color primaries                : BT.709
Transfer characteristics       : BT.709
Matrix coefficients            : BT.709
Codec configuration box        : avcC

Audio
ID                             : 2
Format                         : AAC LC
Format/Info                    : Advanced Audio Codec Low Complexity
Codec ID                       : mp4a-40-2
Duration                       : 2 min 37 s
Duration_LastFrame             : -15 ms
Bit rate mode                  : Constant
Bit rate                       : 249 kb/s
Channel(s)                     : 2 channels
Channel layout                 : L R
Sampling rate                  : 48.0 kHz
Frame rate                     : 46.875 FPS (1024 SPF)
Compression mode               : Lossy
Stream size                    : 4.66 MiB (2%)
Default                        : Yes
Alternate group                : 1

</pre>
</div>
<div class="bbCodeBlock bbCodeVfcHH HiddenContent">
<div class="attribution type">Hidden Content:</div>
<blockquote>You must either reply or click 'Like' to see the hidden information contained here.</blockquote>
</div>
<div class="messageTextEndMarker">&nbsp;</div>
</blockquote>
</article>]]></description>
                <author><![CDATA[vitalya3]]></author>
                </item>

                </channel></rss>